GIL04_xslow1_ik
nRows=3
nColumns=375

# SIMM Motion File Header:
name GIL04_xslow1_ik
datacolumns 375
datarows 3
otherdata 1
range 1.55833000 1.57500000
endheader
time	pelvis_tx	pelvis_ty	pelvis_tz	pelvis_tilt	pelvis_list	pelvis_rotation	hip_flexion_r	hip_adduction_r	hip_rotation_r	knee_angle_r	ankle_angle_r	hip_flexion_l	hip_adduction_l	hip_rotation_l	knee_angle_l	ankle_angle_l	lumbar_extension	lumbar_bending	lumbar_rotation	subtalar_angle_r	mtp_angle_r	subtalar_angle_l	mtp_angle_l	asis_r_px	asis_r_py	asis_r_pz	asis_l_px	asis_l_py	asis_l_pz	midasis_px	midasis_py	midasis_pz	psis_r_px	psis_r_py	psis_r_pz	psis_l_px	psis_l_py	psis_l_pz	hip_r_px	hip_r_py	hip_r_pz	hip_l_px	hip_l_py	hip_l_pz	midhip_px	midhip_py	midhip_pz	epicondLat_r_px	epicondLat_r_py	epicondLat_r_pz	epicondMed_r_px	epicondMed_r_py	epicondMed_r_pz	thighwand_r_px	thighwand_r_py	thighwand_r_pz	upperleg1_r_px	upperleg1_r_py	upperleg1_r_pz	upperleg2_r_px	upperleg2_r_py	upperleg2_r_pz	malleolusLat_r_px	malleolusLat_r_py	malleolusLat_r_pz	malleolusMedv_r_px	malleolusMedv_r_py	malleolusMedv_r_pz	shankwand_r_px	shankwand_r_py	shankwand_r_pz	lowerleg1_r_px	lowerleg1_r_py	lowerleg1_r_pz	knee_r_px	knee_r_py	knee_r_pz	ankle_r_px	ankle_r_py	ankle_r_pz	toe_r_px	toe_r_py	toe_r_pz	epicondLat_l_px	epicondLat_l_py	epicondLat_l_pz	epicondMed_l_px	epicondMed_l_py	epicondMed_l_pz	thighwand_l_px	thighwand_l_py	thighwand_l_pz	upperleg1_l_px	upperleg1_l_py	upperleg1_l_pz	upperleg2_l_px	upperleg2_l_py	upperleg2_l_pz	malleolusLat_l_px	malleolusLat_l_py	malleolusLat_l_pz	malleolusMedv_l_px	malleolusMedv_l_py	malleolusMedv_l_pz	shankwand_l_px	shankwand_l_py	shankwand_l_pz	lowerleg1_l_px	lowerleg1_l_py	lowerleg1_l_pz	knee_l_px	knee_l_py	knee_l_pz	ankle_l_px	ankle_l_py	ankle_l_pz	toe_l_px	toe_l_py	toe_l_pz	subclavicle_r_px	subclavicle_r_py	subclavicle_r_pz	subclavicle_l_px	subclavicle_l_py	subclavicle_l_pz	neck_px	neck_py	neck_pz	sternalnotch_px	sternalnotch_py	sternalnotch_pz	xyphoidprocess_px	xyphoidprocess_py	xyphoidprocess_pz	midhip_tx	midhip_ty	midhip_tz	hip_r_tx	hip_r_ty	hip_r_tz	hip_l_tx	hip_l_ty	hip_l_tz	knee_r_tx	knee_r_ty	knee_r_tz	knee_l_tx	knee_l_ty	knee_l_tz	ankle_r_tx	ankle_r_ty	ankle_r_tz	ankle_l_tx	ankle_l_ty	ankle_l_tz	midasis_tx	midasis_ty	midasis_tz	asis_r_tx	asis_r_ty	asis_r_tz	asis_l_tx	asis_l_ty	asis_l_tz	psis_r_tx	psis_r_ty	psis_r_tz	psis_l_tx	psis_l_ty	psis_l_tz	epicondLat_r_tx	epicondLat_r_ty	epicondLat_r_tz	epicondLat_l_tx	epicondLat_l_ty	epicondLat_l_tz	epicondMed_r_tx	epicondMed_r_ty	epicondMed_r_tz	epicondMed_l_tx	epicondMed_l_ty	epicondMed_l_tz	malleolusLat_r_tx	malleolusLat_r_ty	malleolusLat_r_tz	malleolusLat_l_tx	malleolusLat_l_ty	malleolusLat_l_tz	malleolusMedv_r_tx	malleolusMedv_r_ty	malleolusMedv_r_tz	malleolusMedv_l_tx	malleolusMedv_l_ty	malleolusMedv_l_tz	neck_tx	neck_ty	neck_tz	subclavicle_r_tx	subclavicle_r_ty	subclavicle_r_tz	subclavicle_l_tx	subclavicle_l_ty	subclavicle_l_tz	sternalnotch_tx	sternalnotch_ty	sternalnotch_tz	xyphoidprocess_tx	xyphoidprocess_ty	xyphoidprocess_tz	thighwand_r_tx	thighwand_r_ty	thighwand_r_tz	thighwand_l_tx	thighwand_l_ty	thighwand_l_tz	upperleg1_r_tx	upperleg1_r_ty	upperleg1_r_tz	upperleg1_l_tx	upperleg1_l_ty	upperleg1_l_tz	upperleg2_r_tx	upperleg2_r_ty	upperleg2_r_tz	upperleg2_l_tx	upperleg2_l_ty	upperleg2_l_tz	shankwand_r_tx	shankwand_r_ty	shankwand_r_tz	shankwand_l_tx	shankwand_l_ty	shankwand_l_tz	lowerleg1_r_tx	lowerleg1_r_ty	lowerleg1_r_tz	lowerleg1_l_tx	lowerleg1_l_ty	lowerleg1_l_tz	toe_r_tx	toe_r_ty	toe_r_tz	toe_l_tx	toe_l_ty	toe_l_tz	ground_force_vx	ground_force_vy	ground_force_vz	ground_force_px	ground_force_py	ground_force_pz	ground_force_vx	ground_force_vy	ground_force_vz	ground_force_px	ground_force_py	ground_force_pz	ground_torque_x	ground_torque_y	ground_torque_z	ground_torque_x	ground_torque_y	ground_torque_z	ground_marker_px	ground_marker_py	ground_marker_pz	ground_marker_px	ground_marker_py	ground_marker_pz	ground_marker_px	ground_marker_py	ground_marker_pz	ground_marker_px	ground_marker_py	ground_marker_pz	ground_marker_px	ground_marker_py	ground_marker_pz	ground_marker_px	ground_marker_py	ground_marker_pz	ground_marker_px	ground_marker_py	ground_marker_pz	ground_marker_px	ground_marker_py	ground_marker_pz	ground_marker_px	ground_marker_py	ground_marker_pz	ground_marker_px	ground_marker_py	ground_marker_pz	ground_marker_px	ground_marker_py	ground_marker_pz	ground_marker_px	ground_marker_py	ground_marker_pz	ground_marker_px	ground_marker_py	ground_marker_pz	ground_marker_px	ground_marker_py	ground_marker_pz	ground_marker_px	ground_marker_py	ground_marker_pz	ground_marker_px	ground_marker_py	ground_marker_pz	ground_marker_px	ground_marker_py	ground_marker_pz	ground_marker_px	ground_marker_py	ground_marker_pz	ground_marker_px	ground_marker_py	ground_marker_pz	ground_marker_px	ground_marker_py	ground_marker_pz	ground_marker_px	ground_marker_py	ground_marker_pz	ground_marker_px	ground_marker_py	ground_marker_pz	ground_marker_px	ground_marker_py	ground_marker_pz	ground_marker_px	ground_marker_py	ground_marker_pz	ground_marker_px	ground_marker_py	ground_marker_pz	ground_marker_px	ground_marker_py	ground_marker_pz	ground_marker_px	ground_marker_py	ground_marker_pz	ground_marker_px	ground_marker_py	ground_marker_pz	ground_marker_px	ground_marker_py	ground_marker_pz	ground_marker_px	ground_marker_py	ground_marker_pz	ground_marker_px	ground_marker_py	ground_marker_pz	ground_marker_px	ground_marker_py	ground_marker_pz	ground_marker_px	ground_marker_py	ground_marker_pz	ground_marker_px	ground_marker_py	ground_marker_pz	ground_marker_px	ground_marker_py	ground_marker_pz	ground_marker_px	ground_marker_py	ground_marker_pz	ground_marker_px	ground_marker_py	ground_marker_pz
      1.55833000	      1.39528252	      0.74425710	     -0.23381659	      0.61105558	     -0.80148363	     -2.92179567	     20.48514716	      0.82784076	      1.68996927	    -37.88068835	      4.50397674	     -2.99194619	      4.86507554	     -3.64222636	     -0.94182443	      3.09938326	     -7.70723534	      0.46493134	     10.44865490	      0.00000000	      0.00000000	      0.00000000	      0.00000000	      1.49596251	      0.73495735	     -0.14851704	      1.51188961	      0.72350078	     -0.33431614	      1.40548598	      0.74437321	     -0.23329584	      1.36750842	      0.79763057	     -0.23787900	      1.37080406	      0.78938534	     -0.29209131	      1.34115433	      0.69625564	     -0.17491734	      1.34738466	      0.69461936	     -0.29662593	      1.34426949	      0.69543750	     -0.23577163	      1.49589370	      0.39377623	     -0.11006895	      1.49721592	      0.39151679	     -0.21054673	      1.46693663	      0.49684115	     -0.04215066	      1.49028903	      0.55952759	     -0.11225069	      1.51976822	      0.48015029	     -0.11940870	      1.38603587	      0.06646516	     -0.10177654	      1.39523945	      0.06910555	     -0.16112260	      1.39754054	      0.17724852	     -0.03858881	      1.42914328	      0.22061247	     -0.10157193	      1.46158338	      0.38862366	     -0.16944212	      1.36940583	      0.08260493	     -0.16790136	      1.48280200	      0.01851927	     -0.11941517	      1.37268272	      0.34845037	     -0.33505913	      1.37464345	      0.34768917	     -0.23094986	      1.51876926	      0.43033986	     -0.32508600	      1.46181772	      0.49882466	     -0.27195856	      1.43610566	      0.41558420	     -0.26128765	      1.32042666	      0.03403926	     -0.31128201	      1.32358685	      0.03940906	     -0.24790991	      1.42300953	      0.12135365	     -0.31942011	      1.37062046	      0.18523126	     -0.29893005	      1.32883855	      0.36996272	     -0.26523607	      1.30899981	      0.05245857	     -0.23451029	      1.42034967	      0.00548192	     -0.29039206	      1.38124880	      1.13428847	     -0.17724970	      1.37696994	      1.14813119	     -0.29173766	      1.29827079	      1.14114071	     -0.23063906	      1.38029016	      1.12919129	     -0.23858687	      1.46780674	      1.01561252	     -0.25492077	      1.35376400	      0.68722400	     -0.23846200	      1.34292700	      0.69548400	     -0.17422600	      1.34877100	      0.69275800	     -0.29989000	      1.45921000	      0.39413400	     -0.17079500	      1.33341200	      0.38271300	     -0.26422000	      1.36558700	      0.08353400	     -0.14754800	      1.31152600	      0.06042800	     -0.25100100	      1.40872600	      0.76040700	     -0.23557200	      1.40429700	      0.76247300	     -0.14033600	      1.41315500	      0.75834100	     -0.33080800	      1.26082600	      0.79198100	     -0.22077800	      1.26300300	      0.78835200	     -0.27539200	      1.45854400	      0.39445200	     -0.12030000	      1.33233000	      0.37705300	     -0.31388700	      1.47229700	      0.38297400	     -0.21540300	      1.32678200	      0.38579600	     -0.20979900	      1.35664000	      0.08861600	     -0.11566700	      1.30862300	      0.05921600	     -0.28535700	      1.37285500	      0.08797100	     -0.17380100	      1.30538600	      0.06376600	     -0.22274800	      1.31083000	      1.14593100	     -0.23274200	      1.38564900	      1.09032600	     -0.17078000	      1.38439000	      1.09678700	     -0.30062100	      1.37843700	      1.08280400	     -0.23872500	      1.38455000	      0.93909600	     -0.24520800	      1.42851200	      0.47244400	     -0.04130600	      1.46904900	      0.47265200	     -0.30962400	      1.44287600	      0.54148100	     -0.10681800	      1.40518200	      0.53929800	     -0.26039100	      1.48274300	      0.46799400	     -0.11869400	      1.38443900	      0.45481900	     -0.24392900	      1.36512400	      0.19617800	     -0.05210700	      1.40473100	      0.15176400	     -0.28686200	      1.39945400	      0.23937900	     -0.11231900	      1.34401500	      0.21108300	     -0.27290800	      1.45054800	      0.04982400	     -0.12003500	      1.40393000	      0.03904700	     -0.25674400	      0.00000000	      0.00000000	      0.00000000	      0.98580688	      0.00000000	     -0.20915105	     -7.14066501	    310.04435840	      5.11323779	      1.36404443	      0.00000000	     -0.25082266	      0.00000000	      0.00000000	      0.00000000	      0.00000000	     -0.03742770	      0.00000000	      1.35376406	      0.68722391	     -0.23846155	      1.34292746	      0.69548434	     -0.17422628	      1.34877145	      0.69275808	     -0.29988983	      1.45920968	      0.39413366	     -0.17079487	      1.33341229	      0.38271314	     -0.26422045	      1.36558652	      0.08353357	     -0.14754815	      1.31152582	      0.06042836	     -0.25100064	      1.40872574	      0.76040733	     -0.23557210	      1.40429676	      0.76247346	     -0.14033614	      1.41315472	      0.75834113	     -0.33080807	      1.26082635	      0.79198080	     -0.22077797	      1.26300251	      0.78835201	     -0.27539194	      1.45854402	      0.39445180	     -0.12030026	      1.33232999	      0.37705278	     -0.31388724	      1.47229683	      0.38297376	     -0.21540324	      1.32678175	      0.38579553	     -0.20979887	      1.35664022	      0.08861631	     -0.11566743	      1.30862260	      0.05921627	     -0.28535688	      1.37285519	      0.08797128	     -0.17380141	      1.30538619	      0.06376607	     -0.22274788	      1.31082976	      1.14593077	     -0.23274238	      1.38564920	      1.09032559	     -0.17077979	      1.38439035	      1.09678674	     -0.30062091	      1.37843692	      1.08280420	     -0.23872495	      1.38454974	      0.93909609	     -0.24520841	      1.42851233	      0.47244418	     -0.04130613	      1.46904945	      0.47265211	     -0.30962381	      1.44287574	      0.54148102	     -0.10681785	      1.40518153	      0.53929752	     -0.26039064	      1.48274267	      0.46799356	     -0.11869399	      1.38443911	      0.45481861	     -0.24392898	      1.36512434	      0.19617802	     -0.05210653	      1.40473080	      0.15176399	     -0.28686160	      1.39945376	      0.23937917	     -0.11231938	      1.34401488	      0.21108297	     -0.27290815	      1.45054793	      0.04982356	     -0.12003530	      1.40393007	      0.03904717	     -0.25674403
      1.56667000	      1.39901620	      0.74383380	     -0.23361365	      0.62927432	     -0.86689740	     -2.95631614	     20.91752543	      0.85001435	      1.32339194	    -36.41997658	      4.57314850	     -3.42282582	      4.81431057	     -3.56550961	     -0.78202065	      3.31394401	     -7.64432873	      0.61066680	     10.53784429	      0.00000000	      0.00000000	      0.00000000	      0.00000000	      1.49964674	      0.73466380	     -0.14824173	      1.51569183	      0.72300158	     -0.33401789	      1.40921929	      0.74395384	     -0.23308676	      1.37122718	      0.79719354	     -0.23775371	      1.37455885	      0.78888786	     -0.29195460	      1.34486747	      0.69588152	     -0.17469322	      1.35117317	      0.69410914	     -0.29639602	      1.34802032	      0.69499533	     -0.23554462	      1.50160627	      0.39457034	     -0.10921113	      1.50358169	      0.39244110	     -0.20968105	      1.47139762	      0.49731987	     -0.04136015	      1.49469098	      0.56027414	     -0.11123945	      1.52484828	      0.48114334	     -0.11830112	      1.40235260	      0.06481654	     -0.10177336	      1.41182222	      0.06780589	     -0.16106098	      1.40975954	      0.17587767	     -0.03846015	      1.44027436	      0.22032000	     -0.10122770	      1.46748362	      0.38937122	     -0.16881335	      1.38559281	      0.08043797	     -0.16798985	      1.50083758	      0.02029456	     -0.11881683	      1.37412487	      0.34777375	     -0.33480292	      1.37586255	      0.34699233	     -0.23068984	      1.52076055	      0.42863677	     -0.32451816	      1.46417942	      0.49751572	     -0.27150460	      1.43786237	      0.41445684	     -0.26089386	      1.32052389	      0.03371866	     -0.31117105	      1.32359111	      0.03906815	     -0.24779268	      1.42349005	      0.12059898	     -0.31911181	      1.37133448	      0.18469553	     -0.29870994	      1.33027334	      0.36959851	     -0.26507075	      1.30903500	      0.05217782	     -0.23441817	      1.42040206	      0.00516260	     -0.29023318	      1.38448813	      1.13383567	     -0.17669317	      1.38011486	      1.14784560	     -0.29115723	      1.30146559	      1.14063951	     -0.23001946	      1.38349842	      1.12883018	     -0.23803740	      1.47118163	      1.01541308	     -0.25459940	      1.35746000	      0.68695000	     -0.23847500	      1.34658800	      0.69527400	     -0.17424500	      1.35245100	      0.69245400	     -0.29990600	      1.46530200	      0.39466500	     -0.17078800	      1.33487100	      0.38258500	     -0.26437600	      1.38180500	      0.08068000	     -0.14675600	      1.31161800	      0.06042000	     -0.25101400	      1.41237500	      0.76017100	     -0.23563100	      1.40793300	      0.76230800	     -0.14040700	      1.41681800	      0.75803400	     -0.33085400	      1.26448700	      0.79167700	     -0.22088800	      1.26664600	      0.78806900	     -0.27548400	      1.46435000	      0.39487000	     -0.12029800	      1.33383300	      0.37694900	     -0.31404600	      1.47776900	      0.38362400	     -0.21549900	      1.32817100	      0.38571800	     -0.20989500	      1.37263900	      0.08555500	     -0.11490500	      1.30871600	      0.05920500	     -0.28537000	      1.38986000	      0.08546300	     -0.17301100	      1.30533000	      0.06384300	     -0.22276900	      1.31416000	      1.14561900	     -0.23222200	      1.38880900	      1.08979300	     -0.17016800	      1.38787800	      1.09658100	     -0.30000200	      1.38176500	      1.08252300	     -0.23811000	      1.38779600	      0.93875100	     -0.24498100	      1.43318300	      0.47264500	     -0.04126300	      1.47124300	      0.47177400	     -0.30954700	      1.44804200	      0.54157100	     -0.10664300	      1.40780300	      0.53870800	     -0.26038100	      1.48766600	      0.46863400	     -0.11846700	      1.38637000	      0.45423700	     -0.24392600	      1.37745700	      0.19359000	     -0.05159500	      1.40525500	      0.15131000	     -0.28691200	      1.41020100	      0.23776400	     -0.11184400	      1.34772900	      0.21199000	     -0.27436000	      1.46781600	      0.04995800	     -0.11950800	      1.40408500	      0.03897500	     -0.25672500	      0.00000000	      0.00000000	      0.00000000	      0.98632159	      0.00000000	     -0.20952878	     -7.26782114	    310.29331958	      5.24411396	      1.36726562	      0.00000000	     -0.25060330	      0.00000000	      0.00000000	      0.00000000	      0.00000000	     -0.02920117	      0.00000000	      1.35745955	      0.68695033	     -0.23847497	      1.34658849	      0.69527411	     -0.17424504	      1.35245144	      0.69245428	     -0.29990563	      1.46530223	      0.39466530	     -0.17078826	      1.33487058	      0.38258541	     -0.26437584	      1.38180459	      0.08067977	     -0.14675620	      1.31161809	      0.06042040	     -0.25101355	      1.41237533	      0.76017100	     -0.23563065	      1.40793252	      0.76230782	     -0.14040700	      1.41681814	      0.75803417	     -0.33085430	      1.26448679	      0.79167676	     -0.22088756	      1.26664591	      0.78806901	     -0.27548435	      1.46435022	      0.39486998	     -0.12029765	      1.33383298	      0.37694904	     -0.31404629	      1.47776926	      0.38362423	     -0.21549927	      1.32817078	      0.38571826	     -0.20989509	      1.37263930	      0.08555489	     -0.11490527	      1.30871630	      0.05920485	     -0.28536978	      1.38986003	      0.08546327	     -0.17301106	      1.30533016	      0.06384342	     -0.22276916	      1.31416011	      1.14561927	     -0.23222223	      1.38880908	      1.08979321	     -0.17016786	      1.38787806	      1.09658062	     -0.30000231	      1.38176513	      1.08252335	     -0.23810954	      1.38779640	      0.93875140	     -0.24498112	      1.43318260	      0.47264454	     -0.04126327	      1.47124279	      0.47177401	     -0.30954656	      1.44804192	      0.54157114	     -0.10664285	      1.40780318	      0.53870815	     -0.26038113	      1.48766601	      0.46863377	     -0.11846659	      1.38637042	      0.45423707	     -0.24392554	      1.37745690	      0.19358996	     -0.05159511	      1.40525472	      0.15130991	     -0.28691167	      1.41020119	      0.23776355	     -0.11184416	      1.34772944	      0.21198983	     -0.27436033	      1.46781552	      0.04995794	     -0.11950760	      1.40408540	      0.03897518	     -0.25672513
      1.57500000	      1.40276882	      0.74339150	     -0.23348873	      0.64647383	     -0.92539776	     -2.97766842	     21.30920698	      0.86149329	      1.00697860	    -34.92160461	      4.59429276	     -3.85042538	      4.77027301	     -3.49145632	     -0.62551168	      3.52648268	     -7.58522691	      0.77334807	     10.57040535	      0.00000000	      0.00000000	      0.00000000	      0.00000000	      1.50336936	      0.73433912	     -0.14806891	      1.51948937	      0.72249292	     -0.33382694	      1.41297168	      0.74351519	     -0.23295804	      1.37496508	      0.79673848	     -0.23769371	      1.37832011	      0.78837872	     -0.29188484	      1.34861213	      0.69548257	     -0.17454035	      1.35496512	      0.69358838	     -0.29623886	      1.35178862	      0.69453548	     -0.23538961	      1.50717819	      0.39525640	     -0.10847649	      1.50970459	      0.39323005	     -0.20893619	      1.47586471	      0.49772472	     -0.04070117	      1.49907364	      0.56090752	     -0.11040208	      1.52984059	      0.48200336	     -0.11736935	      1.41857015	      0.06345085	     -0.10158477	      1.42823713	      0.06676806	     -0.16082308	      1.42194296	      0.17468293	     -0.03822825	      1.45127735	      0.22013322	     -0.10083660	      1.47317362	      0.39001374	     -0.16827281	      1.40163641	      0.07851925	     -0.16788511	      1.51858965	      0.02228980	     -0.11811802	      1.37556809	      0.34710342	     -0.33462842	      1.37711074	      0.34630384	     -0.23051240	      1.52274581	      0.42694007	     -0.32407107	      1.46655054	      0.49620930	     -0.27115571	      1.43963495	      0.41333557	     -0.26059876	      1.32062110	      0.03340896	     -0.31112653	      1.32361217	      0.03873902	     -0.24774287	      1.42396895	      0.11985033	     -0.31889738	      1.37205531	      0.18416661	     -0.29857011	      1.33173031	      0.36923961	     -0.26497540	      1.30909122	      0.05190930	     -0.23438970	      1.42045833	      0.00484747	     -0.29016533	      1.38772195	      1.13334194	     -0.17604686	      1.38334447	      1.14755281	     -0.29048598	      1.30469713	      1.14011877	     -0.22937303	      1.38674863	      1.12844619	     -0.23740020	      1.47460309	      1.01519001	     -0.25415475	      1.36116300	      0.68665200	     -0.23849200	      1.35027000	      0.69503300	     -0.17426300	      1.35612300	      0.69212900	     -0.29992200	      1.47118900	      0.39509100	     -0.17073900	      1.33634300	      0.38245800	     -0.26452700	      1.39793000	      0.07809100	     -0.14600900	      1.31171700	      0.06041600	     -0.25102800	      1.41603300	      0.75990700	     -0.23569900	      1.41159900	      0.76210800	     -0.14048400	      1.42046800	      0.75770600	     -0.33091300	      1.26816000	      0.79134900	     -0.22096000	      1.27028300	      0.78776500	     -0.27553700	      1.47000300	      0.39520500	     -0.12025300	      1.33533600	      0.37684500	     -0.31420100	      1.48233600	      0.38413400	     -0.21568800	      1.32982800	      0.38546800	     -0.21013800	      1.38859200	      0.08273200	     -0.11417300	      1.30881100	      0.05919800	     -0.28538400	      1.40590800	      0.08321300	     -0.17230900	      1.30548500	      0.06389300	     -0.22278100	      1.31754000	      1.14531100	     -0.23164000	      1.39199400	      1.08928100	     -0.16948200	      1.39140400	      1.09639500	     -0.29933400	      1.38508400	      1.08219800	     -0.23747800	      1.39108300	      0.93842800	     -0.24469200	      1.43782500	      0.47284300	     -0.04118400	      1.47343400	      0.47089600	     -0.30950400	      1.45366600	      0.54184300	     -0.10664000	      1.41034400	      0.53809700	     -0.26039200	      1.49245500	      0.46909900	     -0.11839600	      1.38842900	      0.45368500	     -0.24403100	      1.38982300	      0.19109000	     -0.05105400	      1.40577100	      0.15084800	     -0.28697300	      1.42098400	      0.23622700	     -0.11139900	      1.34859500	      0.21187100	     -0.27444600	      1.48492900	      0.05027000	     -0.11917500	      1.40424400	      0.03890200	     -0.25671700	      0.00000000	      0.00000000	      0.00000000	      0.98687012	      0.00000000	     -0.20990854	     -7.34343302	    310.57572374	      5.36353285	      1.37045776	      0.00000000	     -0.25039433	      0.00000000	      0.00000000	      0.00000000	      0.00000000	     -0.02909299	      0.00000000	      1.36116266	      0.68665218	     -0.23849165	      1.35027039	      0.69503343	     -0.17426260	      1.35612309	      0.69212902	     -0.29992175	      1.47118926	      0.39509070	     -0.17073913	      1.33634293	      0.38245809	     -0.26452741	      1.39793003	      0.07809065	     -0.14600872	      1.31171668	      0.06041611	     -0.25102779	      1.41603327	      0.75990689	     -0.23569852	      1.41159868	      0.76210767	     -0.14048420	      1.42046797	      0.75770611	     -0.33091283	      1.26815951	      0.79134929	     -0.22096047	      1.27028322	      0.78776526	     -0.27553740	      1.47000253	      0.39520532	     -0.12025321	      1.33533645	      0.37684485	     -0.31420112	      1.48233616	      0.38413405	     -0.21568799	      1.32982838	      0.38546833	     -0.21013813	      1.38859200	      0.08273230	     -0.11417308	      1.30881083	      0.05919816	     -0.28538364	      1.40590811	      0.08321331	     -0.17230943	      1.30548477	      0.06389262	     -0.22278064	      1.31753993	      1.14531100	     -0.23164000	      1.39199400	      1.08928084	     -0.16948220	      1.39140368	      1.09639502	     -0.29933429	      1.38508368	      1.08219838	     -0.23747844	      1.39108264	      0.93842804	     -0.24469177	      1.43782532	      0.47284305	     -0.04118367	      1.47343409	      0.47089568	     -0.30950433	      1.45366645	      0.54184312	     -0.10663974	      1.41034389	      0.53809732	     -0.26039156	      1.49245524	      0.46909925	     -0.11839557	      1.38842928	      0.45368496	     -0.24403055	      1.38982272	      0.19109040	     -0.05105444	      1.40577137	      0.15084839	     -0.28697270	      1.42098403	      0.23622742	     -0.11139930	      1.34859538	      0.21187149	     -0.27444562	      1.48492908	      0.05026956	     -0.11917483	      1.40424383	      0.03890170	     -0.25671718
